<?xml version="1.0" encoding="UTF-8"?>
<svg viewBox="0 0 128 128" version="1.1" xmlns="http://www.w3.org/2000/svg" xmlns:xlink="http://www.w3.org/1999/xlink">
	<g stroke="none" stroke-width="1" fill="none" fill-rule="evenodd">
		<path d="M64.0757997,0 C28.6940621,0 -5.68434189e-14,28.6901281 -5.68434189e-14,64.0836675 C-5.68434189e-14,92.3961387 18.3596364,116.412762 43.8239445,124.88644 C47.0300949,125.476529 48.1984711,123.497764 48.1984711,121.798308 C48.1984711,120.275878 48.1433961,116.247537 48.1119247,110.90133 C30.2873024,114.772314 26.5264684,102.309634 26.5264684,102.309634 C23.6114286,94.905984 19.4099948,92.9350866 19.4099948,92.9350866 C13.5917171,88.9618206 19.8505946,89.0404991 19.8505946,89.0404991 C26.2825649,89.4929007 29.665742,95.6455622 29.665742,95.6455622 C35.3817376,105.437106 44.6658048,102.608613 48.3164889,100.968165 C48.8987101,96.8296742 50.5548933,94.0051147 52.3841692,92.4040065 C38.155156,90.7871626 23.1944324,85.287533 23.1944324,60.7319619 C23.1944324,53.73744 25.6924759,48.0135766 29.7916276,43.5367679 C29.1307279,41.91599 26.9316628,35.3974733 30.4210559,26.5776094 C30.4210559,26.5776094 35.7987338,24.8545495 48.041114,33.1472672 C53.1512849,31.7231857 58.6351789,31.0150789 64.0836675,30.9875414 C69.5282222,31.0150789 75.0081822,31.7231857 80.126221,33.1472672 C92.3607333,24.8545495 97.7305434,26.5776094 97.7305434,26.5776094 C101.227804,35.3974733 99.0287393,41.91599 98.3717735,43.5367679 C102.478793,48.0135766 104.957167,53.73744 104.957167,60.7319619 C104.957167,85.3504758 89.9728398,90.767493 75.7005533,92.3528655 C77.9979666,94.3316307 80.0475425,98.2419539 80.0475425,104.217589 C80.0475425,112.785681 79.9688639,119.697591 79.9688639,121.798308 C79.9688639,123.5135 81.1254384,125.508001 84.3748619,124.882506 C109.8195,116.389158 128.163401,92.3882708 128.163401,64.0836675 C128.163401,28.6901281 99.4693391,0 64.0757997,0" id="Octocat" fill="#FFFFFE"></path>
	</g>
</svg>
