<?xml version="1.0" encoding="UTF-8"?>
<svg viewBox="0 0 128 128" version="1.1" xmlns="http://www.w3.org/2000/svg" xmlns:xlink="http://www.w3.org/1999/xlink">
	<g stroke="none" stroke-width="1" fill="none" fill-rule="evenodd">
		<path d="M10,0 L118,0 C123.522847,-1.01453063e-15 128,4.4771525 128,10 L128,118 C128,123.522847 123.522847,128 118,128 L10,128 C4.4771525,128 6.76353751e-16,123.522847 0,118 L0,10 C-6.76353751e-16,4.4771525 4.4771525,1.01453063e-15 10,0 Z M28.6203835,39.7091701 C34.6955158,39.7091701 39.6203835,34.7843024 39.6203835,28.7091701 C39.6203835,22.6340379 34.6955158,17.7091701 28.6203835,17.7091701 C22.5452513,17.7091701 17.6203835,22.6340379 17.6203835,28.7091701 C17.6203835,34.7843024 22.5452513,39.7091701 28.6203835,39.7091701 Z M19.1203835,47.9560785 L19.1203835,108.956079 L38.2694928,108.956079 L38.2694928,47.9560785 L19.1203835,47.9560785 Z M69.2476588,55.2582671 L69.2476588,47.9560785 L50.0985495,47.9560785 L50.0985495,108.956079 L69.2476588,108.956079 L69.2476588,74.9286698 C69.8004237,69.5116058 71.9364608,63.2012166 80.1890979,63.2012166 C89.3144535,63.2012166 90.4230468,70.0322647 90.4230468,78.0160185 C90.4230468,83.3385211 90.4230468,93.6518744 90.4230468,108.956079 L109.381693,108.956079 C109.381693,94.9661561 109.381693,82.6378616 109.381693,71.9711949 C109.381693,55.9711949 103.303968,46.5085646 86.5686411,46.5085646 C79.0172013,46.5085646 73.2435405,49.4251321 69.2476588,55.2582671 Z" id="Combined-Shape" fill="#FFFFFF"></path>
	</g>
</svg>
