<?xml version="1.0" standalone="no"?>
<!DOCTYPE svg PUBLIC "-//W3C//DTD SVG 20010904//EN"
 "http://www.w3.org/TR/2001/REC-SVG-20010904/DTD/svg10.dtd">
<svg version="1.0" xmlns="http://www.w3.org/2000/svg"
 width="700.000000pt" height="700.000000pt" viewBox="0 0 700.000000 700.000000"
 preserveAspectRatio="xMidYMid meet">
<metadata>
Created by potrace 1.14, written by Peter Selinger 2001-2017
</metadata>
<g transform="translate(0.000000,700.000000) scale(0.100000,-0.100000)"
fill="#000000" stroke="none">
<path d="M274 3505 c0 -1922 2 -3495 5 -3495 3 0 98 94 211 209 113 115 415
423 671 683 257 260 494 501 528 536 l61 63 0 -751 0 -750 493 2 492 3 0 1243
c0 683 2 1242 5 1242 5 0 351 -350 889 -898 84 -86 363 -370 620 -630 256
-261 574 -584 706 -718 l240 -245 0 1983 0 1983 180 183 c99 101 207 213 240
248 33 35 63 64 67 64 3 0 6 -982 7 -2182 0 -1201 0 -2204 0 -2230 l1 -48 490
0 490 0 0 3498 0 3499 -194 -196 c-106 -108 -256 -260 -332 -337 -581 -592
-939 -954 -944 -954 -3 0 -5 334 -5 743 l0 742 -492 3 -493 2 0 -1250 0 -1250
-36 37 c-20 21 -252 256 -514 523 -263 267 -542 550 -620 630 -79 80 -358 363
-620 630 -263 267 -519 527 -569 578 -49 50 -93 92 -96 92 -3 0 -5 -898 -5
-1996 l0 -1995 -237 -240 c-131 -132 -241 -245 -245 -252 -10 -16 -9 -241 -10
2271 l0 2222 -492 0 -493 0 1 -3495z m876 1058 l0 -2328 268 271 c147 149 467
475 712 724 590 599 575 583 592 597 18 15 -45 76 564 -543 259 -264 598 -607
752 -764 l282 -285 0 415 0 415 224 230 c123 127 295 304 383 394 l159 163 0
-1792 0 -1793 -329 334 c-733 744 -1181 1200 -1355 1377 -357 364 -663 672
-668 672 -4 0 -360 -359 -728 -734 -83 -85 -365 -372 -627 -638 -262 -265
-593 -602 -736 -747 l-260 -265 0 3312 0 3312 383 0 384 0 0 -2327z m3935
1577 l0 -750 -148 -152 c-82 -84 -254 -259 -383 -389 l-234 -236 0 1138 0
1139 383 0 383 0 -1 -750z m-2215 -1809 c69 -71 202 -208 295 -303 220 -226
668 -687 879 -903 l165 -170 1 -222 c0 -123 -2 -223 -4 -223 -2 0 -81 78 -174
173 -379 384 -620 629 -950 965 l-347 352 0 230 c-1 127 1 230 4 230 3 0 62
-58 131 -129z"/>
</g>
</svg>
